# xmcd
#
# Track frame offsets:
# 150
# 22409
# 38294
# 53537
# 73370
# 96116
# 116109
# 138564
# 157408
# 178610
# 200154
# 220824
# 238440
# 264186
#
# Disc length: 3754 seconds
#
# Revision: 0
# Processed by: cddbd v1.5.1PL2 Copyright (c) Steve Scherf et al.
# Submitted via: Audion 3.0.2 (http://www.panic.com/audion/)
#
DISCID=da0ea80e
DTITLE=Tim - Tim
DYEAR=1900
DGENRE=
TTITLE0=55
TTITLE1=2
TTITLE2=3
TTITLE3=4
TTITLE4=5
TTITLE5=6
TTITLE6=7
TTITLE7=8
TTITLE8=9
TTITLE9=10
TTITLE10=11
TTITLE11=1213143215
TTITLE12=54
TTITLE13=6
EXTD=
EXTT0=
EXTT1=
EXTT2=
EXTT3=
EXTT4=
EXTT5=
EXTT6=
EXTT7=
EXTT8=
EXTT9=
EXTT10=
EXTT11=
EXTT12=
EXTT13=
PLAYORDER=
